<?xml version="1.0" encoding="utf-8"?>
<!-- Generator: Adobe Illustrator 25.0.0, SVG Export Plug-In . SVG Version: 6.00 Build 0)  -->
<!DOCTYPE svg PUBLIC "-//W3C//DTD SVG 1.1//EN" "http://www.w3.org/Graphics/SVG/1.1/DTD/svg11.dtd" [
	<!ENTITY ns_extend "http://ns.adobe.com/Extensibility/1.0/">
	<!ENTITY ns_ai "http://ns.adobe.com/AdobeIllustrator/10.0/">
	<!ENTITY ns_graphs "http://ns.adobe.com/Graphs/1.0/">
	<!ENTITY ns_vars "http://ns.adobe.com/Variables/1.0/">
	<!ENTITY ns_imrep "http://ns.adobe.com/ImageReplacement/1.0/">
	<!ENTITY ns_sfw "http://ns.adobe.com/SaveForWeb/1.0/">
	<!ENTITY ns_custom "http://ns.adobe.com/GenericCustomNamespace/1.0/">
	<!ENTITY ns_adobe_xpath "http://ns.adobe.com/XPath/1.0/">
]>
<svg version="1.1" id="Layer_1" xmlns:x="&ns_extend;" xmlns:i="&ns_ai;" xmlns:graph="&ns_graphs;"
	 xmlns="http://www.w3.org/2000/svg" xmlns:xlink="http://www.w3.org/1999/xlink" x="0px" y="0px" viewBox="0 0 800 800"
	 style="enable-background:new 0 0 800 800;" xml:space="preserve">
<style type="text/css">
	.st0{fill:#F9F9F9;}
</style>
<metadata>
	<sfw  xmlns="&ns_sfw;">
		<slices></slices>
		<sliceSourceBounds  bottomLeftOrigin="true" height="800" width="800" x="0" y="0"></sliceSourceBounds>
		<optimizationSettings>
			<targetSettings  fileFormat="PNG8Format" targetSettingsID="0">
				
					<PNG8Format  autoReduce="false" ditherAlgorithm="diffusion" ditherPercent="100" interlaced="false" matteColor="#000000" noMatteColor="true" numColors="256" reductionAlgorithm="perceptual" rolloverMasterPalette="false" transparency="false" webShiftPercent="0">
					<colorTable  isExact="false"></colorTable>
					<lockedColors></lockedColors>
					<colorShiftEntries></colorShiftEntries>
				</PNG8Format>
			</targetSettings>
		</optimizationSettings>
	</sfw>
</metadata>
<rect class="st0" width="800" height="800"/>
<path d="M642.8,319.1v121.4h-14.3V319.1H642.8z M354.9,357.6c-14,0-22.5,8.9-23.9,20.2h-0.7v-18.3H316v80.9h14.2V390
	c0-13.6,7.3-19.9,19.4-19.9c13.9,0,20.2,6.9,20.2,20.6v49.7H384v-51.5C384.1,369.6,373.2,357.6,354.9,357.6z M267.8,438.2h-0.5
	l-24.7-78.7h-14.8l26.1,80.9H267l-13.3,40.5H268l39.2-121.4h-14.7L267.8,438.2z M580.3,438.2h-0.5l-24.7-78.7h-14.7l26.1,80.9h13.1
	l-13.3,40.5h14.2l39.2-121.4H605L580.3,438.2z M186.9,400l35.1-40.5h-17.3l-32.8,39h-0.5V319h-14.2v121.4h14.2v-39.8H185l27.4,39.7
	h16.5l-28.3-40.5L186.9,400z M506.6,377.9h-0.7v-18.3h-14.2v80.9h14.2v-50.6c0-13.6,7.7-18.6,21-18.6c3,0,5.9,0.3,8.8,0.9v-13.7
	c-2.2-0.7-4.5-0.9-6.8-0.9C516.6,357.6,508.2,365.9,506.6,377.9L506.6,377.9z M459.1,319.1h14.2v121.4h-14.2v-18.4h-0.7
	c-1.4,11.3-10,20.2-26.4,20.2c-20,0-34.2-15.9-34.2-42.3s14.2-42.3,34.2-42.3c16.4,0,25.1,8.9,26.4,20.2h0.7V319.1z M459.1,389.3
	c0-13.6-10.3-19.1-23-19.1c-13.5,0-23.5,8.4-23.5,29.8s10.1,29.8,23.5,29.8c12.8,0,23-5.5,23-19.1V389.3z"/>
</svg>
